# xmcd
#
# Track frame offsets:
#	150
#	18252
#	44579
#	60484
#	79437
#	95289
#	112304
#	127790
#	146196
#	164003
#	188581
#	206693
#	222824
#	245248
#	266290
#
# Disc length: 3786 seconds
#
# Revision: 0
# Processed by: cddbd v1.5.2PL0 Copyright (c) Steve Scherf et al.
# Submitted via: audiograbber 1.83.01
#
DISCID=de0ec80f
DTITLE=Mixed Country - Mixed Country Volume 4 Disc 2
DYEAR=1900
DGENRE=Country
TTITLE0=Martina McBride - How Far
TTITLE1=Martina McBride - God's Will
TTITLE2=Montgomery Gentry - If You Ever Stop Loving Me
TTITLE3=Montgomery Gentry - Gone
TTITLE4=Phil Vassar - In A Real Love
TTITLE5=Rachel Proctor - Me and Emily
TTITLE6=Rascal Flatts - Feels Like Today
TTITLE7=Rascal Flatts - Mayberry
TTITLE8=Sara Evans - Suds In The Bucket
TTITLE9=Sara Evans - Tonight
TTITLE10=Shania Twain - Don't
TTITLE11=Terri Clark - Girls Lie Too
TTITLE12=Tim McGraw - Live Like You Were Dying
TTITLE13=Tim McGraw - Back When
TTITLE14=Toby Keith - Whiskey Girl
EXTD=
EXTT0=
EXTT1=
EXTT2=
EXTT3=
EXTT4=
EXTT5=
EXTT6=
EXTT7=
EXTT8=
EXTT9=
EXTT10=
EXTT11=
EXTT12=
EXTT13=
EXTT14=
PLAYORDER=
